<?xml version="1.0" encoding="iso-8859-1"?>
<!-- Generator: Adobe Illustrator 19.0.0, SVG Export Plug-In . SVG Version: 6.00 Build 0)  -->
<svg version="1.1" id="Capa_1" xmlns="http://www.w3.org/2000/svg" xmlns:xlink="http://www.w3.org/1999/xlink" x="0px" y="0px"
	 viewBox="0 0 512 512" style="enable-background:new 0 0 512 512;" xml:space="preserve">
<g>
	<g>
		<g>
			<path d="M349.867,196.267v-76.8H384c4.713,0,8.533-3.82,8.533-8.533s-3.82-8.533-8.533-8.533h-34.133v-8.533
				C349.867,42.026,307.841,0,256,0s-93.867,42.026-93.867,93.867v8.533H128c-4.713,0-8.533,3.82-8.533,8.533
				s3.82,8.533,8.533,8.533h34.133v76.8c-14.132,0.015-25.585,11.468-25.6,25.6v230.4c0.015,14.132,11.468,25.585,25.6,25.6v8.533
				c0.015,14.132,11.468,25.585,25.6,25.6h136.533c14.132-0.015,25.585-11.468,25.6-25.6v-8.533
				c14.132-0.015,25.585-11.468,25.6-25.6v-230.4C375.451,207.735,363.999,196.282,349.867,196.267z M179.2,93.867
				c0-42.416,34.385-76.8,76.8-76.8s76.8,34.385,76.8,76.8v102.4h-17.067v-102.4c0-32.99-26.744-59.733-59.733-59.733
				s-59.733,26.744-59.733,59.733v102.4H179.2V93.867z M298.667,93.867v102.4h-85.333v-102.4c0-23.564,19.102-42.667,42.667-42.667
				S298.667,70.302,298.667,93.867z M332.8,486.4c-0.005,4.711-3.822,8.529-8.533,8.533H187.733
				c-4.711-0.005-8.529-3.822-8.533-8.533v-8.533h153.6V486.4z M358.4,452.267c-0.005,4.711-3.822,8.529-8.533,8.533H162.133
				c-4.711-0.005-8.529-3.823-8.533-8.533v-8.533h204.8V452.267z M358.4,426.667H153.6v-179.2h204.8V426.667z M358.4,230.4H153.6
				v-8.533c0.005-4.711,3.822-8.529,8.533-8.533h187.733c4.711,0.005,8.529,3.822,8.533,8.533V230.4z"/>
			<path d="M273.425,375.467h-60.092c-4.713,0-8.533,3.82-8.533,8.533s3.821,8.533,8.533,8.533h8.533v8.533
				c0,4.713,3.82,8.533,8.533,8.533s8.533-3.82,8.533-8.533v-8.533H256v8.533c0,4.713,3.82,8.533,8.533,8.533
				s8.533-3.82,8.533-8.533v-8.533h0.358c18.525,0.098,33.634-14.817,33.775-33.342v-1.583c-0.033-10.997-5.51-21.263-14.626-27.414
				c3.919-4.928,6.065-11.032,6.093-17.328v-2.8c-0.098-14.543-11.132-26.679-25.6-28.156v-8.844c0-4.713-3.821-8.533-8.533-8.533
				S256,268.354,256,273.067v8.533h-17.067v-8.533c0-4.713-3.82-8.533-8.533-8.533s-8.533,3.821-8.533,8.533v8.533h-8.533
				c-4.713,0-8.533,3.82-8.533,8.533s3.821,8.533,8.533,8.533h56.633c6.358-0.058,11.562,5.042,11.633,11.4v2.8
				c-0.071,6.358-5.276,11.458-11.633,11.4h-31.033c0-4.713-3.82-8.533-8.533-8.533s-8.533,3.82-8.533,8.533v25.6
				c0,4.713,3.82,8.533,8.533,8.533s8.533-3.82,8.533-8.533v-8.533h34.492c9.104-0.109,16.578,7.171,16.708,16.275v1.583
				C290.003,368.295,282.529,375.576,273.425,375.467z"/>
			<path d="M65.768,116.968c1.6-1.6,2.499-3.771,2.499-6.035c0.001-2.263-0.898-4.434-2.499-6.035c-1.6-1.6-3.771-2.499-6.035-2.499
				h-51.2C3.82,102.4,0,106.221,0,110.933s3.82,8.533,8.533,8.533h51.2C61.997,119.467,64.168,118.568,65.768,116.968z"/>
			<path d="M59.733,93.867c4.713,0,8.533-3.821,8.533-8.533h51.2c0,4.713,3.82,8.533,8.533,8.533s8.533-3.821,8.533-8.533V76.8
				c0.001-2.263-0.898-4.434-2.499-6.035c-1.6-1.6-3.771-2.499-6.035-2.499H59.733c-2.263-0.001-4.434,0.898-6.035,2.499
				c-1.6,1.6-2.499,3.771-2.499,6.035v8.533C51.2,90.046,55.021,93.867,59.733,93.867z"/>
			<path d="M136.533,136.533c0-4.713-3.82-8.533-8.533-8.533s-8.533,3.82-8.533,8.533h-51.2c0-4.713-3.82-8.533-8.533-8.533
				s-8.533,3.82-8.533,8.533v8.533c-0.001,2.263,0.898,4.434,2.499,6.035c1.6,1.6,3.771,2.499,6.035,2.499H128
				c2.263,0.001,4.434-0.898,6.035-2.499c1.6-1.6,2.499-3.771,2.499-6.035V136.533z"/>
			<path d="M503.467,102.4h-51.2c-4.713,0-8.533,3.82-8.533,8.533s3.821,8.533,8.533,8.533h51.2c4.713,0,8.533-3.82,8.533-8.533
				S508.18,102.4,503.467,102.4z"/>
			<path d="M384,93.867c4.713,0,8.533-3.821,8.533-8.533h51.2c0,4.713,3.821,8.533,8.533,8.533c4.713,0,8.533-3.821,8.533-8.533
				V76.8c0.001-2.263-0.898-4.434-2.499-6.035c-1.6-1.6-3.771-2.499-6.035-2.499H384c-2.263-0.001-4.434,0.898-6.035,2.499
				c-1.6,1.6-2.499,3.771-2.499,6.035v8.533C375.467,90.046,379.287,93.867,384,93.867z"/>
			<path d="M452.267,128c-2.263-0.001-4.434,0.898-6.035,2.499c-1.6,1.6-2.499,3.771-2.499,6.035h-51.2
				c0-4.713-3.82-8.533-8.533-8.533s-8.533,3.82-8.533,8.533v8.533c-0.001,2.263,0.898,4.434,2.499,6.035
				c1.6,1.6,3.771,2.499,6.035,2.499h68.267c2.263,0.001,4.434-0.898,6.035-2.499c1.6-1.6,2.499-3.771,2.499-6.035v-8.533
				c0.001-2.263-0.898-4.434-2.499-6.035C456.701,128.898,454.53,127.999,452.267,128z"/>
		</g>
	</g>
</g>
<g>
</g>
<g>
</g>
<g>
</g>
<g>
</g>
<g>
</g>
<g>
</g>
<g>
</g>
<g>
</g>
<g>
</g>
<g>
</g>
<g>
</g>
<g>
</g>
<g>
</g>
<g>
</g>
<g>
</g>
</svg>
