<?xml version="1.0" encoding="iso-8859-1"?>
<!-- Generator: Adobe Illustrator 19.0.0, SVG Export Plug-In . SVG Version: 6.00 Build 0)  -->
<svg version="1.1" id="Capa_1" xmlns="http://www.w3.org/2000/svg" xmlns:xlink="http://www.w3.org/1999/xlink" x="0px" y="0px"
	 viewBox="0 0 511.985 511.985" style="enable-background:new 0 0 511.985 511.985;" xml:space="preserve">
<g>
	<g>
		<path d="M453.387,400.242c-98.556-36.841-101.4-50.778-101.4-52.247c0-2.211-1.789-4-4-4s-4,1.789-4,4
			c0,5.437,0,19.897,106.596,59.739c30.756,11.491,45.396,22.24,45.396,52.255v43.997H16.008v-43.997
			c0-30.015,14.639-40.764,45.399-52.255c106.591-39.842,106.591-54.301,106.591-59.739c0-2.211-1.788-4-3.999-4s-4,1.789-4,4
			c0,1.469-2.844,15.406-101.393,52.247c-32.815,12.257-50.599,25.413-50.599,59.747v47.996c0,2.211,1.789,4,4,4h487.97
			c2.211,0,4-1.789,4.001-4v-47.996C503.978,425.655,486.198,412.499,453.387,400.242z"/>
	</g>
</g>
<g>
	<g>
		<path d="M395.984,192.005c-2.211,0-4,1.789-4,4c0,88.681-84.839,171.989-135.992,171.989S120,284.687,120,196.005
			c0-2.211-1.789-4-3.999-4c-2.211,0-4,1.789-4,4c0,95.861,89.744,179.988,143.991,179.988s143.991-84.127,143.991-179.988
			C399.983,193.794,398.194,192.005,395.984,192.005z"/>
	</g>
</g>
<g>
	<g>
		<path d="M163.998,311.997c-2.211,0-4,1.789-4,4v31.998c0,2.211,1.789,4,4,4s3.999-1.789,3.999-4v-31.998
			C167.997,313.786,166.209,311.997,163.998,311.997z"/>
	</g>
</g>
<g>
	<g>
		<path d="M347.986,311.997c-2.211,0-4,1.789-4,4v31.998c0,2.211,1.789,4,4,4s4-1.789,4-4v-31.998
			C351.986,313.786,350.197,311.997,347.986,311.997z"/>
	</g>
</g>
<g>
	<g>
		<path d="M364.344,37.568C341.205,12.64,307.379,0,263.804,0C205.956,0,146.21,23.1,144.53,26.014
			c-1.086,1.899-0.457,4.313,1.414,5.43l16.28,9.742C143.026,52.67,87.99,94.362,88.002,194.958c0,1.445,0.781,2.773,2.039,3.484
			c0.609,0.343,1.285,0.515,1.961,0.515c0.719,0,1.441-0.195,2.078-0.586c1.344-0.813,140.039-84.144,259.602-78.238l38.24,61.973
			c0.906,1.469,2.648,2.203,4.358,1.781c1.679-0.406,2.906-1.858,3.031-3.585C404.123,115.775,392.359,67.754,364.344,37.568z
			 M392.079,167.117l-32.686-52.958c-0.688-1.11-1.875-1.821-3.172-1.891c-108.025-6.422-231.412,59.418-260.125,75.69
			c1.508-56.441,21.202-91.877,37.83-111.876c18.748-22.561,37.778-30.967,37.966-31.045c1.379-0.594,2.308-1.914,2.406-3.414
			c0.097-1.492-0.649-2.922-1.934-3.695l-15.288-9.148C174.251,22.468,218.517,8,263.805,8.002
			c41.263,0,73.112,11.781,94.674,35.013C383.11,69.545,394.384,111.253,392.079,167.117z"/>
	</g>
</g>
<g>
	<g>
		<path d="M381.273,369.69c-2.086-0.727-4.367,0.406-5.07,2.5c-0.234,0.68-24.193,67.801-120.211,67.801
			c-95.752,0-119.255-65.043-120.208-67.809c-0.719-2.086-2.999-3.187-5.077-2.484c-2.09,0.711-3.203,2.976-2.492,5.07
			c0.257,0.757,6.534,18.764,25.525,36.856c17.405,16.594,49.274,36.365,102.252,36.365c52.981,0,84.847-19.771,102.252-36.365
			c18.99-18.091,25.271-36.098,25.521-36.856C384.484,372.674,383.359,370.401,381.273,369.69z"/>
	</g>
</g>
<g>
	<g>
		<path d="M368.189,362.556c-2.047-0.797-4.359,0.25-5.155,2.296c-0.234,0.594-25.522,59.138-107.041,59.138
			c-82.773,0-106.802-58.497-107.013-59.067c-0.731-2.085-3.02-3.171-5.094-2.46c-2.086,0.735-3.188,3.007-2.461,5.093
			c0.226,0.649,26.443,64.434,114.567,64.434c86.8,0,114.29-63.691,114.533-64.333C371.283,365.594,370.236,363.337,368.189,362.556
			z"/>
	</g>
</g>
<g>
	<g>
		<path d="M227.994,175.997h-55.997c-6.616,0-11.999,5.383-11.999,11.999v15.999c0,6.618,5.383,12,11.999,12h55.997
			c6.616,0,11.999-5.382,11.999-12v-15.999C239.993,181.38,234.61,175.997,227.994,175.997z M231.993,203.996
			c0,2.203-1.792,4-3.999,4h-55.997c-2.207,0-4-1.797-4-4v-15.999c0-2.211,1.793-4,4-4h55.997c2.207,0,3.999,1.79,3.999,4V203.996z"
			/>
	</g>
</g>
<g>
	<g>
		<path d="M339.987,175.997H283.99c-6.616,0-11.999,5.383-11.999,11.999v15.999c0,6.618,5.383,12,11.999,12h55.997
			c6.616,0,11.999-5.382,11.999-12v-15.999C351.986,181.38,346.603,175.997,339.987,175.997z M343.986,203.996
			c0,2.203-1.796,4-3.999,4H283.99c-2.203,0-4-1.797-4-4v-15.999c0-2.211,1.797-4,4-4h55.997c2.203,0,3.999,1.79,3.999,4V203.996z"
			/>
	</g>
</g>
<g>
	<g>
		<path d="M275.991,192.239h-40.006c-2.211,0-4,1.789-4,4s1.789,4,4,4h40.006c2.211,0,3.999-1.789,3.999-4
			S278.202,192.239,275.991,192.239z"/>
	</g>
</g>
<g>
</g>
<g>
</g>
<g>
</g>
<g>
</g>
<g>
</g>
<g>
</g>
<g>
</g>
<g>
</g>
<g>
</g>
<g>
</g>
<g>
</g>
<g>
</g>
<g>
</g>
<g>
</g>
<g>
</g>
</svg>
