<?xml version="1.0" encoding="iso-8859-1"?>
<!-- Generator: Adobe Illustrator 19.0.0, SVG Export Plug-In . SVG Version: 6.00 Build 0)  -->
<svg version="1.1" id="Capa_1" xmlns="http://www.w3.org/2000/svg" xmlns:xlink="http://www.w3.org/1999/xlink" x="0px" y="0px"
	 viewBox="0 0 503.968 503.968" style="enable-background:new 0 0 503.968 503.968;" xml:space="preserve">
<g>
	<g>
		<path d="M251.983,40.004c-83.432,0-143.991,65.606-143.991,155.991c0,95.87,89.744,179.989,143.991,179.989
			s143.991-84.119,143.991-179.989C395.974,105.609,335.415,40.004,251.983,40.004z M251.983,367.986
			c-51.154,0-135.992-83.3-135.992-171.99c0-85.753,57.192-147.991,135.992-147.991s135.992,62.238,135.992,147.991
			C387.975,284.686,303.137,367.986,251.983,367.986z"/>
	</g>
</g>
<g>
	<g>
		<path d="M425.372,416.224c-5.139-1.914-11.327-3.89-18.069-6.031c-31.787-10.101-75.323-23.936-75.323-54.215c0-2.211-1.789-4-4-4
			c-2.21,0-3.999,1.789-3.999,4c0,36.13,46.762,50.996,80.9,61.84c6.601,2.101,12.664,4.023,17.695,5.906
			c30.756,11.491,45.396,22.248,45.396,52.246v19.999H35.998V475.97c0-29.998,14.64-40.755,45.396-52.246
			c5.03-1.882,11.093-3.804,17.686-5.898c34.146-10.852,80.909-25.71,80.909-61.848c0-2.211-1.789-4-4-4s-4,1.789-4,4
			c0,30.287-43.544,44.122-75.331,54.223c-6.735,2.14-12.922,4.109-18.062,6.023c-32.819,12.265-50.599,25.42-50.599,59.746v23.999
			c0,2.21,1.789,3.999,4,3.999h439.972c2.211,0,4-1.789,4.002-3.999V475.97C475.971,441.644,458.19,428.489,425.372,416.224z"/>
	</g>
</g>
<g>
	<g>
		<path d="M175.988,328.971c-2.211,0-4,1.789-4,4v23.007c0,2.211,1.789,3.999,4,3.999s3.999-1.788,4-3.999v-23.007
			C179.988,330.76,178.199,328.971,175.988,328.971z"/>
	</g>
</g>
<g>
	<g>
		<path d="M327.978,328.963c-2.21,0-3.999,1.789-3.999,4v23.015c0,2.211,1.789,3.999,3.999,3.999c2.211,0,4-1.788,4-3.999v-23.015
			C331.978,330.752,330.189,328.963,327.978,328.963z"/>
	</g>
</g>
<g>
	<g>
		<path d="M353.657,424.753c-1.985-0.921-4.383-0.047-5.305,1.961c-0.172,0.375-18.03,37.256-96.369,37.256
			c-77.62,0-96.096-36.709-96.369-37.271c-0.922-1.992-3.313-2.866-5.297-1.945c-2.007,0.922-2.882,3.297-1.96,5.305
			c0.781,1.711,20.217,41.911,103.626,41.911s102.854-40.2,103.635-41.912C356.54,428.05,355.665,425.675,353.657,424.753z"/>
	</g>
</g>
<g>
	<g>
		<path d="M251.983,135.99c-21.959,0-39.278-3.523-53.192-6.358c-14.515-2.953-25.006-5.086-32.623-1.203
			c-23.1,11.78-55.832,55.316-57.215,57.16c-1.32,1.774-0.961,4.282,0.805,5.602c0.718,0.539,1.562,0.797,2.398,0.797
			c1.211,0,2.413-0.555,3.203-1.602c0.328-0.437,32.998-43.896,54.45-54.833c5.117-2.617,14.467-0.711,27.381,1.914
			c14.272,2.906,32.029,6.523,54.793,6.523c2.211,0,4-1.789,4-4S254.194,135.99,251.983,135.99z"/>
	</g>
</g>
<g>
	<g>
		<path d="M393.092,185.589c-1.382-1.844-34.114-45.38-57.215-57.16c-7.578-3.875-17.741-1.765-31.826,1.133
			c-13.913,2.867-31.232,6.429-53.989,6.429c-2.211,0-4,1.789-4,4s1.789,4,4,4c23.569,0,42.084-3.813,55.606-6.594
			c12.483-2.571,21.499-4.422,26.568-1.844c21.452,10.937,54.122,54.395,54.45,54.833c0.789,1.047,1.992,1.602,3.203,1.602
			c0.836,0,1.68-0.258,2.398-0.797C394.053,189.87,394.412,187.362,393.092,185.589z"/>
	</g>
</g>
<g>
	<g>
		<path d="M251.983,63.995c-2.211,0-4,1.789-4,4v47.997c0,2.211,1.789,4,4,4s4-1.789,4-4V67.995
			C255.983,65.784,254.194,63.995,251.983,63.995z"/>
	</g>
</g>
<g>
	<g>
		<path d="M323.954,115.555c-2.906-26.647-24.171-49.356-25.069-50.309c-1.515-1.601-4.046-1.672-5.655-0.156
			c-1.601,1.515-1.672,4.046-0.156,5.655c0.203,0.211,20.319,21.749,22.928,45.685c0.227,2.046,1.961,3.562,3.969,3.562
			c0.149,0,0.297-0.008,0.444-0.023C322.61,119.726,324.196,117.758,323.954,115.555z"/>
	</g>
</g>
<g>
	<g>
		<path d="M210.736,65.09c-1.609-1.516-4.133-1.446-5.656,0.156c-0.899,0.953-22.163,23.662-25.069,50.309
			c-0.242,2.204,1.344,4.172,3.539,4.414c0.148,0.015,0.297,0.023,0.445,0.023c2.008,0,3.742-1.516,3.969-3.562
			c2.609-23.936,22.725-45.474,22.928-45.685C212.408,69.136,212.338,66.605,210.736,65.09z"/>
	</g>
</g>
<g>
	<g>
		<path d="M279.981,23.998h-55.996c-2.211,0-4,1.789-4,4v15.999c0,2.211,1.789,4,4,4h55.996c2.211,0,4-1.789,4-4V27.998
			C283.981,25.787,282.192,23.998,279.981,23.998z M275.981,39.997h-47.997v-7.999h47.997V39.997z"/>
	</g>
</g>
<g>
	<g>
		<path d="M275.778,26.732C275.411,25.639,266.608,0,243.984,0c-8.054,0-12.234,3.453-14.319,6.351
			c-6.055,8.398-1.961,21.452-1.477,22.913c0.562,1.672,2.125,2.734,3.796,2.734c0.422,0,0.844-0.063,1.267-0.204
			c2.093-0.703,3.226-2.968,2.531-5.062c-0.898-2.695-2.758-11.358,0.375-15.71c1.469-2.031,4.024-3.023,7.828-3.023
			c16.827,0,24.131,21.061,24.209,21.272c0.703,2.094,2.976,3.211,5.062,2.516C275.34,31.084,276.473,28.826,275.778,26.732z"/>
	</g>
</g>
<g>
	<g>
		<path d="M370.873,297.224c-1.515-1.61-4.054-1.657-5.648-0.141c-1.601,1.515-1.671,4.046-0.148,5.648
			c0.469,0.5,46.896,49.942,46.896,93.244c0,2.211,1.789,4,4,4s4-1.789,3.999-3.999C419.972,349.463,372.88,299.341,370.873,297.224
			z"/>
	</g>
</g>
<g>
	<g>
		<path d="M419.661,394.428c-21.296-50.755-64.59-65.637-66.426-66.246c-2.102-0.718-4.367,0.445-5.055,2.539
			c-0.695,2.094,0.437,4.36,2.539,5.055c0.414,0.141,41.661,14.311,61.566,61.746c0.641,1.531,2.126,2.453,3.688,2.453
			c0.516,0,1.039-0.101,1.547-0.313C419.559,398.811,420.52,396.467,419.661,394.428z"/>
	</g>
</g>
<g>
	<g>
		<path d="M151.989,388.796c-2.211,0-4,1.789-4,3.999v34.178c0,2.211,1.79,4,4,4c2.211,0,4-1.789,4-4v-34.178
			C155.989,390.585,154.2,388.796,151.989,388.796z"/>
	</g>
</g>
<g>
	<g>
		<path d="M351.985,388.796c-2.211,0-4,1.789-4,3.999v35.592c0,2.211,1.789,4,4,4s4-1.789,4-4v-35.592
			C355.985,390.585,354.196,388.796,351.985,388.796z"/>
	</g>
</g>
<g>
	<g>
		<path d="M391.975,405.88c-2.211,0-4,1.789-4,4v90.089c0,2.21,1.789,3.999,4,3.999c2.21,0,3.999-1.789,3.999-3.999V409.88
			C395.974,407.669,394.185,405.88,391.975,405.88z"/>
	</g>
</g>
<g>
	<g>
		<path d="M111.992,405.435c-2.211,0-4,1.789-4,4v90.534c0,2.21,1.789,3.999,4,3.999c2.21,0,3.999-1.789,4-3.999v-90.534
			C115.992,407.224,114.202,405.435,111.992,405.435z"/>
	</g>
</g>
<g>
</g>
<g>
</g>
<g>
</g>
<g>
</g>
<g>
</g>
<g>
</g>
<g>
</g>
<g>
</g>
<g>
</g>
<g>
</g>
<g>
</g>
<g>
</g>
<g>
</g>
<g>
</g>
<g>
</g>
</svg>
