<?xml version="1.0" encoding="iso-8859-1"?>
<!-- Generator: Adobe Illustrator 19.0.0, SVG Export Plug-In . SVG Version: 6.00 Build 0)  -->
<svg version="1.1" id="Capa_1" xmlns="http://www.w3.org/2000/svg" xmlns:xlink="http://www.w3.org/1999/xlink" x="0px" y="0px"
	 viewBox="0 0 511.968 511.968" style="enable-background:new 0 0 511.968 511.968;" xml:space="preserve">
<g>
	<g>
		<path d="M395.976,175.997c-2.211,0-4,1.789-4,4c0,88.689-84.839,171.989-135.992,171.989c-23.682,0-55.106-17.921-82.007-46.778
			c-29.701-31.849-49.067-71.816-53.141-109.649c-0.235-2.188-2.102-3.781-4.406-3.547c-2.195,0.234-3.785,2.211-3.547,4.406
			c9.07,84.244,88.304,163.568,143.101,163.568c54.247,0,143.991-84.12,143.991-179.989
			C399.975,177.786,398.186,175.997,395.976,175.997z"/>
	</g>
</g>
<g>
	<g>
		<path d="M437.482,403.412c-2.024-0.852-4.375,0.125-5.227,2.164c-0.844,2.039,0.125,4.382,2.164,5.226
			c24.351,10.109,37.553,20.937,37.553,49.17v43.997H39.997v-43.997c0-29.999,14.64-40.756,45.396-52.247
			c5.034-1.882,11.093-3.804,17.686-5.898c34.146-10.851,80.909-25.71,80.909-61.848c0-2.211-1.789-4-4-4s-4,1.789-4,4
			c0,30.287-43.54,44.122-75.331,54.224c-6.734,2.139-12.921,4.108-18.065,6.022c-32.811,12.265-50.595,25.421-50.595,59.747v47.996
			c0,2.211,1.789,4,4,4H475.97c2.211,0,4-1.789,4.001-4v-47.996C479.971,427.552,463.714,414.294,437.482,403.412z"/>
	</g>
</g>
<g>
	<g>
		<path d="M352.758,368.773c-11.296-8.499-16.78-17.921-16.78-28.795c0-2.211-1.789-4-4-4c-2.21,0-3.999,1.789-3.999,4
			c0,13.374,6.718,25.209,19.967,35.186c0.718,0.539,1.562,0.804,2.406,0.804c1.211,0,2.406-0.546,3.195-1.593
			C354.875,372.609,354.524,370.101,352.758,368.773z"/>
	</g>
</g>
<g>
	<g>
		<path d="M179.989,312.972c-2.211,0-4,1.789-4,4v23.007c0,2.211,1.789,3.999,4,3.999s3.999-1.788,4-3.999v-23.007
			C183.989,314.761,182.2,312.972,179.989,312.972z"/>
	</g>
</g>
<g>
	<g>
		<path d="M331.979,312.964c-2.21,0-3.999,1.789-3.999,4v23.015c0,2.211,1.789,3.999,3.999,3.999c2.211,0,4-1.788,4-3.999v-23.015
			C335.979,314.753,334.19,312.964,331.979,312.964z"/>
	</g>
</g>
<g>
	<g>
		<path d="M255.983,0c-88.217,0-159.99,71.769-159.99,159.99c0,2.211,1.789,4,4,4s4-1.789,4-4
			c0-83.808,68.183-151.991,151.991-151.991S407.975,76.182,407.975,159.99c0,2.211,1.788,4,3.999,4s4-1.789,3.999-4
			C415.973,71.769,344.196,0,255.983,0z"/>
	</g>
</g>
<g>
	<g>
		<path d="M134.389,264.78c-30.001-22.499-30.396-80.214-30.396-80.792c0-2.211-1.793-4-4-4c-2.211,0-4,1.79-4,4
			c0,2.531,0.383,62.286,33.6,87.198c0.719,0.539,1.559,0.797,2.395,0.797c1.219,0,2.417-0.555,3.202-1.602
			C136.518,268.615,136.159,266.108,134.389,264.78z"/>
	</g>
</g>
<g>
	<g>
		<path d="M358.806,37.435c-1.562-1.562-4.094-1.562-5.656,0c-1.141,1.14-115.075,113.977-253.965,142.64
			c-2.164,0.445-3.554,2.562-3.109,4.718c0.391,1.898,2.055,3.195,3.914,3.195c0.265,0,0.539-0.024,0.812-0.085
			c141.28-29.147,256.856-143.664,258.004-144.812C360.368,41.528,360.368,38.99,358.806,37.435z"/>
	</g>
</g>
<g>
	<g>
		<path d="M413.177,164.952c-73.73-26.858-127.407-67.723-127.938-68.129c-1.75-1.336-4.257-1.008-5.609,0.734
			c-1.351,1.75-1.015,4.265,0.734,5.609c0.539,0.414,55.13,41.997,130.078,69.3c0.453,0.164,0.914,0.242,1.367,0.242
			c1.633,0,3.164-1.008,3.759-2.631C416.326,168.006,415.255,165.71,413.177,164.952z"/>
	</g>
</g>
<g>
	<g>
		<path d="M327.768,440.621c-0.711-2.093-2.976-3.187-5.07-2.507c-19.319,6.538-41.764,9.858-66.715,9.858
			c-103.657,0-128.043-57.488-128.277-58.066c-0.824-2.047-3.16-3.055-5.195-2.227c-2.047,0.821-3.05,3.133-2.238,5.188
			c1.019,2.57,26.256,63.105,135.71,63.105c25.826,0,49.138-3.461,69.277-10.281C327.354,444.98,328.479,442.715,327.768,440.621z"
			/>
	</g>
</g>
<g>
	<g>
		<path d="M423.529,402.131c-1.024-1.961-3.43-2.742-5.383-1.719l-31.045,16.007c-1.969,1.016-2.735,3.422-1.727,5.391
			c0.711,1.375,2.11,2.164,3.555,2.164c0.625,0,1.25-0.14,1.828-0.445l31.045-16.007C423.771,406.506,424.537,404.1,423.529,402.131
			z"/>
	</g>
</g>
<g>
	<g>
		<path d="M419.974,399.967c-2.211,0-4,1.789-4,4v48.005c0,2.211,1.789,4,4,4s4-1.789,4-4v-48.005
			C423.974,401.756,422.185,399.967,419.974,399.967z"/>
	</g>
</g>
<g>
	<g>
		<path d="M421.802,448.417l-31.045-16.015c-1.953-1.023-4.375-0.242-5.383,1.719c-1.007,1.969-0.242,4.375,1.727,5.391
			l31.045,16.015c0.578,0.304,1.203,0.445,1.828,0.445c1.446,0,2.844-0.789,3.555-2.164
			C424.536,451.839,423.771,449.433,421.802,448.417z"/>
	</g>
</g>
<g>
	<g>
		<path d="M374.595,434.121c-1.024-1.961-3.438-2.742-5.383-1.719l-31.061,16.015c-1.969,1.016-2.735,3.422-1.727,5.391
			c0.711,1.375,2.11,2.164,3.555,2.164c0.625,0,1.25-0.14,1.828-0.445l31.061-16.015
			C374.837,438.496,375.603,436.09,374.595,434.121z"/>
	</g>
</g>
<g>
	<g>
		<path d="M339.979,399.967c-2.211,0-4,1.789-4,4v48.005c0,2.211,1.789,4,4,4s3.999-1.789,3.999-4v-48.005
			C343.978,401.756,342.19,399.967,339.979,399.967z"/>
	</g>
</g>
<g>
	<g>
		<path d="M372.852,416.411l-31.045-15.999c-1.953-1.015-4.375-0.242-5.383,1.719c-1.007,1.969-0.242,4.383,1.727,5.391
			l31.045,15.999c0.578,0.304,1.203,0.445,1.828,0.445c1.445,0,2.844-0.789,3.555-2.164
			C375.586,419.833,374.821,417.419,372.852,416.411z"/>
	</g>
</g>
<g>
	<g>
		<path d="M379.976,411.966c-8.827,0-15.999,7.18-15.999,16c0,8.819,7.172,15.998,15.999,15.998c8.828,0,16-7.178,16-15.998
			S388.804,411.966,379.976,411.966z M379.976,435.965c-4.405,0-7.999-3.586-7.999-7.999c0-4.414,3.594-8,7.999-8
			c4.406,0,8,3.586,8,8C387.976,432.379,384.382,435.965,379.976,435.965z"/>
	</g>
</g>
<g>
	<g>
		<path d="M388.656,448.026c-2.148-0.359-4.242,1.094-4.617,3.266c-0.813,4.703-2.844,12.171-4.625,18.757
			c-1.375,5.093-2.672,9.874-3.352,13.093c-0.46,2.164,0.93,4.289,3.086,4.742c0.281,0.055,0.562,0.086,0.828,0.086
			c1.86,0,3.516-1.289,3.915-3.173c0.656-3.117,1.914-7.734,3.242-12.655c1.922-7.094,3.906-14.421,4.781-19.491
			C392.289,450.471,390.836,448.401,388.656,448.026z"/>
	</g>
</g>
<g>
	<g>
		<path d="M411.997,164.717c-2.399-0.196-4.085,1.593-4.179,3.804c-0.062,1.289-6.156,130.274-19.124,234.962
			c-0.273,2.195,1.282,4.188,3.477,4.461c0.164,0.023,0.336,0.031,0.492,0.031c2,0,3.717-1.484,3.968-3.507
			c13.015-105.002,19.109-234.283,19.171-235.572C415.911,166.685,414.208,164.819,411.997,164.717z"/>
	</g>
</g>
<g>
	<g>
		<path d="M383.805,483.142c-0.672-3.164-1.922-7.844-3.258-12.843c-1.789-6.68-3.813-14.241-4.633-19.007
			c-0.358-2.172-2.413-3.633-4.608-3.266c-2.188,0.375-3.641,2.445-3.266,4.625c0.875,5.117,2.859,12.538,4.781,19.71
			c1.297,4.843,2.508,9.375,3.155,12.437c0.398,1.883,2.062,3.172,3.906,3.172c0.282,0,0.563-0.031,0.837-0.086
			C382.883,487.423,384.258,485.298,383.805,483.142z"/>
	</g>
</g>
<g>
	<g>
		<path d="M371.181,403.491c-3.468-28.053-6.765-60.301-9.78-95.846c-0.187-2.203-2.062-3.789-4.328-3.648
			c-2.196,0.187-3.829,2.125-3.641,4.32c3.023,35.645,6.328,67.995,9.812,96.158c0.25,2.024,1.968,3.508,3.968,3.508
			c0.156,0,0.328-0.008,0.492-0.031C369.9,407.679,371.454,405.686,371.181,403.491z"/>
	</g>
</g>
<g>
	<g>
		<path d="M412.052,155.99c-2.125-0.383-4.03,1.719-4.077,3.922l-0.164,8.718c-0.039,2.211,1.71,4.039,3.929,4.078
			c0.015,0,0.047,0,0.07,0c2.18,0,3.961-1.743,4-3.922l0.164-8.718C416.013,157.857,414.255,156.029,412.052,155.99z"/>
	</g>
</g>
<g>
	<g>
		<path d="M99.994,155.989c-2.211,0-4,1.789-4,4v23.999c0,2.211,1.789,4,4,4c2.21,0,3.999-1.789,4-4v-23.999
			C103.994,157.778,102.204,155.989,99.994,155.989z"/>
	</g>
</g>
<g>
	<g>
		<path d="M398.803,337.151l-31.998-31.998c-1.562-1.562-4.093-1.562-5.655,0s-1.562,4.094,0,5.656l31.998,31.998
			c0.781,0.781,1.805,1.171,2.828,1.171s2.046-0.39,2.827-1.171C400.365,341.245,400.365,338.713,398.803,337.151z"/>
	</g>
</g>
<g>
	<g>
		<path d="M398.803,305.153c-1.562-1.562-4.093-1.562-5.655,0l-31.998,31.998c-1.562,1.562-1.562,4.094,0,5.656
			c0.781,0.781,1.805,1.171,2.827,1.171c1.024,0,2.047-0.39,2.828-1.171l31.998-31.998
			C400.365,309.247,400.365,306.715,398.803,305.153z"/>
	</g>
</g>
<g>
	<g>
		<path d="M398.991,369.337l-32.186-32.186c-1.562-1.562-4.093-1.562-5.655,0s-1.562,4.094,0,5.656l32.186,32.186
			c0.781,0.781,1.805,1.171,2.827,1.171c1.023,0,2.047-0.39,2.828-1.171C400.553,373.431,400.553,370.899,398.991,369.337z"/>
	</g>
</g>
<g>
	<g>
		<path d="M398.803,337.151c-1.562-1.562-4.093-1.562-5.655,0l-31.998,31.998c-1.562,1.562-1.562,4.094,0,5.656
			c0.781,0.781,1.805,1.171,2.827,1.171c1.024,0,2.047-0.389,2.828-1.171l31.998-31.998
			C400.365,341.245,400.365,338.713,398.803,337.151z"/>
	</g>
</g>
<g>
	<g>
		<path d="M395.859,398.108l-29.054-29.053c-1.562-1.562-4.093-1.562-5.655,0s-1.562,4.094,0,5.656l29.053,29.053
			c0.781,0.781,1.805,1.172,2.828,1.172s2.047-0.39,2.828-1.172C397.421,402.202,397.421,399.67,395.859,398.108z"/>
	</g>
</g>
<g>
	<g>
		<path d="M398.803,369.055c-1.562-1.562-4.093-1.562-5.655,0l-29.054,29.053c-1.562,1.562-1.562,4.094,0,5.656
			c0.781,0.781,1.805,1.172,2.828,1.172c1.024,0,2.047-0.39,2.828-1.172l29.053-29.053
			C400.365,373.149,400.365,370.617,398.803,369.055z"/>
	</g>
</g>
<g>
</g>
<g>
</g>
<g>
</g>
<g>
</g>
<g>
</g>
<g>
</g>
<g>
</g>
<g>
</g>
<g>
</g>
<g>
</g>
<g>
</g>
<g>
</g>
<g>
</g>
<g>
</g>
<g>
</g>
</svg>
